# xmcd
#
# Track frame offsets:
#	150
#	40652
#	66352
#	93790
#	110979
#	132524
#	153892
#	198569
#	241365
#	271990
#	296395
#	318931
#	332882
#
# Disc length: 4734 seconds
#
# Revision: 1
# Processed by: cddbd v1.5.1PL0 Copyright (c) Steve Scherf et al.
# Submitted via: audiograbber 1.82.01
#
DISCID=be127c0d
DTITLE=Johnny Winter  - Live at Rooftops '83' - "Winter's On Fire"
DYEAR=1900
DGENRE=
TTITLE0=Johnny Winter - Hideaway
TTITLE1=Johnny Winter - Crossroads
TTITLE2=Johnny Winter - Help Me
TTITLE3=Johnny Winter - Bony Moronie
TTITLE4=Johnny Winter - Drum Solo
TTITLE5=Johnny Winter - Rock 'n' Roll Hoochie Koo
TTITLE6=Johnny Winter - Be Careful With A Fool
TTITLE7=Johnny Winter - Highway 61
TTITLE8=Johnny Winter - She Moves Me
TTITLE9=Johnny Winter - It's All Over Now (extra cut on this live)
TTITLE10=Johnny Winter - Johnny B. Goode
TTITLE11=Johnny Winter - Medley Of Long Tall Sally, etc.(extra cut on this live
TTITLE11=)
TTITLE12=Johnny Winter - Okie Dokie Stomp (Instrumental, extra cut on this live
TTITLE12=)
EXTD=
EXTT0=
EXTT1=
EXTT2=
EXTT3=
EXTT4=
EXTT5=
EXTT6=
EXTT7=
EXTT8=
EXTT9=
EXTT10=
EXTT11=
EXTT12=
PLAYORDER=
